<?xml version="1.0" standalone="no"?>
<!DOCTYPE svg PUBLIC "-//W3C//DTD SVG 20010904//EN"
 "http://www.w3.org/TR/2001/REC-SVG-20010904/DTD/svg10.dtd">
<svg version="1.0" xmlns="http://www.w3.org/2000/svg"
 width="2214.000000pt" height="2214.000000pt" viewBox="0 0 2214.000000 2214.000000"
 preserveAspectRatio="xMidYMid meet">
<metadata>
Created by potrace 1.11, written by Peter Selinger 2001-2013
</metadata>
<g transform="translate(0.000000,2214.000000) scale(0.100000,-0.100000)"
fill="#000000" stroke="none">
<path d="M6939 22136 c-2 -2 -44 -6 -94 -10 -49 -3 -101 -8 -115 -10 -14 -3
-52 -7 -85 -11 -264 -28 -639 -126 -955 -249 -107 -42 -440 -205 -542 -265
-151 -89 -494 -330 -533 -375 -6 -6 -44 -40 -85 -75 -84 -73 -298 -287 -377
-377 -213 -245 -413 -544 -555 -829 -124 -248 -197 -436 -278 -720 -52 -184
-94 -387 -115 -565 -4 -30 -9 -66 -10 -80 -2 -14 -7 -72 -12 -130 -11 -138
-11 -14599 0 -14755 5 -66 10 -122 12 -125 1 -3 6 -32 9 -65 4 -33 11 -85 16
-115 5 -30 12 -73 15 -95 4 -22 8 -48 11 -57 3 -10 7 -30 10 -45 3 -16 9 -41
14 -58 4 -16 12 -48 16 -70 4 -22 9 -44 10 -50 2 -5 7 -26 13 -45 67 -253 172
-524 296 -769 69 -136 69 -135 164 -291 57 -93 208 -311 252 -365 9 -11 52
-63 95 -115 88 -105 306 -327 429 -436 164 -145 436 -339 640 -456 444 -254
957 -428 1460 -493 17 -2 48 -7 70 -9 22 -3 83 -9 135 -13 122 -10 8295 -10
8415 -1 450 37 926 157 1295 325 303 138 538 276 779 456 225 168 469 393 612
562 19 22 36 42 40 45 17 15 145 178 202 258 283 391 494 833 622 1305 14 53
28 105 30 115 2 9 8 37 14 62 19 84 47 246 56 320 4 30 8 66 10 80 2 14 7 66
12 115 11 118 10 14723 0 14840 -5 50 -10 101 -12 115 -2 14 -7 45 -10 70 -58
469 -235 994 -482 1429 -86 152 -237 379 -317 478 -123 152 -165 201 -246 286
-291 305 -544 508 -894 717 -239 143 -642 319 -871 381 -16 4 -55 15 -85 24
-30 9 -65 18 -77 21 -12 2 -69 15 -125 28 -57 13 -148 32 -203 41 -55 9 -110
18 -122 20 -12 2 -57 7 -100 10 -43 4 -87 10 -98 13 -21 7 -8349 15 -8356 8z
m8231 -1151 c58 -7 121 -15 140 -19 19 -3 49 -8 65 -11 39 -7 97 -18 110 -21
6 -1 30 -7 55 -14 25 -6 61 -15 80 -19 40 -9 183 -57 285 -96 73 -27 341 -157
385 -185 14 -9 66 -43 115 -75 514 -332 909 -834 1114 -1415 29 -84 68 -211
76 -246 2 -11 10 -50 19 -89 15 -71 22 -107 31 -180 3 -22 8 -50 10 -61 3 -12
8 -57 12 -100 10 -103 10 -14554 0 -14659 -4 -44 -10 -96 -12 -115 -15 -94
-37 -223 -40 -233 -3 -7 -6 -23 -9 -37 -12 -73 -76 -283 -116 -380 -12 -30
-26 -64 -30 -75 -5 -11 -32 -69 -61 -130 -339 -707 -981 -1252 -1729 -1470
-176 -51 -371 -89 -525 -103 -80 -7 -8065 -10 -8140 -3 -39 4 -196 25 -265 36
-31 5 -220 48 -260 59 -172 48 -353 121 -529 212 -877 455 -1445 1327 -1507
2314 -8 130 -7 14402 1 14515 8 111 15 170 36 300 22 143 88 379 149 537 20
50 31 76 82 186 147 316 425 681 687 902 30 25 59 50 65 55 18 16 98 79 122
95 250 171 403 256 609 338 98 39 311 109 363 119 15 3 32 6 37 7 9 2 117 26
140 31 6 1 33 5 60 9 28 4 61 9 74 11 12 2 60 7 105 11 44 3 83 8 85 10 2 2
1805 3 4005 3 3179 -1 4023 -4 4106 -14z"/>
<path d="M6613 19555 c-17 -14 -35 -37 -41 -53 -5 -16 -9 -202 -9 -450 0 -416
0 -424 21 -455 12 -17 33 -37 46 -44 20 -10 926 -13 4428 -13 3915 0 4408 2
4436 15 69 33 68 28 68 504 0 476 0 473 -66 505 -31 15 -383 16 -4443 16
l-4408 0 -32 -25z"/>
<path d="M9372 16184 c-132 -35 -238 -141 -279 -276 -13 -45 -16 -116 -15
-474 0 -231 3 -441 7 -465 24 -147 155 -283 307 -319 24 -5 138 -10 254 -10
l211 0 -1 -982 -1 -983 -29 -50 c-16 -27 -70 -122 -121 -210 -113 -195 -533
-924 -707 -1225 -26 -47 -53 -92 -58 -100 -5 -8 -33 -58 -63 -110 -30 -52
-114 -198 -187 -325 -73 -126 -144 -250 -158 -275 -14 -25 -43 -73 -64 -108
-21 -34 -38 -64 -38 -67 0 -2 -20 -37 -44 -77 -24 -40 -114 -197 -201 -348
-88 -151 -222 -385 -300 -520 -345 -596 -453 -784 -485 -843 l-21 -38 43 -60
c24 -33 59 -81 79 -107 20 -26 121 -164 225 -307 104 -143 192 -264 197 -270
9 -12 186 -253 460 -628 l195 -267 129 156 c70 86 133 162 138 168 6 6 40 47
75 91 36 44 68 82 71 85 5 5 276 331 489 590 433 526 525 636 535 645 6 6 17
19 25 31 14 19 76 95 125 151 11 12 34 39 50 60 17 21 53 65 80 98 28 33 115
139 195 235 79 96 152 184 161 195 10 11 98 117 195 235 98 118 230 278 294
355 64 77 181 219 260 315 80 96 155 186 166 200 31 36 203 243 394 475 90
110 172 209 182 220 9 11 99 119 199 240 99 121 188 229 198 240 9 11 41 49
70 85 30 36 57 67 60 70 4 3 16 18 27 34 l21 28 -105 182 c-58 99 -116 201
-130 226 -13 25 -39 70 -57 100 -18 30 -42 71 -52 90 -11 19 -56 99 -100 176
-45 78 -84 152 -88 164 -8 24 -11 1948 -3 1955 2 2 111 5 241 5 211 1 244 4
298 22 117 39 205 123 251 238 21 53 22 68 24 494 2 486 -1 519 -57 611 -43
72 -96 119 -179 159 l-65 31 -1635 2 c-1396 2 -1643 0 -1688 -13z"/>
<path d="M13209 10868 c-41 -48 -149 -177 -187 -223 -10 -11 -116 -139 -237
-285 -121 -146 -222 -267 -225 -270 -3 -3 -37 -43 -75 -90 -38 -47 -74 -90
-80 -96 -5 -6 -26 -31 -46 -55 -93 -112 -504 -607 -523 -629 -11 -14 -43 -52
-71 -85 -27 -33 -52 -62 -55 -65 -3 -3 -24 -27 -45 -55 -22 -27 -50 -61 -61
-75 -12 -14 -41 -47 -64 -75 -23 -27 -59 -70 -79 -95 -21 -25 -94 -112 -162
-195 -68 -82 -132 -159 -142 -170 -11 -11 -31 -36 -45 -55 -15 -19 -29 -37
-32 -40 -4 -3 -51 -59 -106 -125 -138 -167 -138 -166 -149 -179 -6 -6 -23 -27
-39 -46 -15 -19 -45 -55 -66 -80 -21 -25 -120 -144 -220 -265 -101 -121 -202
-242 -225 -270 -23 -27 -104 -124 -179 -215 -76 -91 -145 -174 -154 -185 -10
-11 -62 -74 -117 -140 -55 -66 -107 -129 -116 -140 -10 -11 -79 -94 -154 -185
-75 -91 -147 -176 -159 -190 -12 -14 -53 -63 -91 -110 -38 -47 -72 -87 -75
-90 -3 -3 -63 -75 -134 -160 -244 -296 -283 -332 -394 -364 -80 -23 -193 -16
-266 17 -93 43 -128 78 -269 270 -73 100 -194 264 -268 365 -73 101 -150 205
-169 232 -19 27 -154 212 -300 410 -428 584 -472 644 -477 658 -9 20 -29 14
-44 -15 -8 -16 -30 -55 -50 -88 -35 -58 -120 -202 -339 -575 -57 -96 -126
-213 -153 -260 -28 -47 -87 -147 -131 -223 -99 -168 -90 -153 -216 -367 -128
-217 -136 -231 -174 -305 -32 -61 -78 -175 -92 -230 -4 -16 -8 -32 -9 -35 -1
-3 -5 -23 -10 -45 -4 -22 -10 -49 -12 -60 -16 -77 -20 -228 -10 -350 40 -465
369 -897 820 -1076 28 -12 57 -22 62 -24 6 -1 17 -5 25 -8 13 -5 71 -19 135
-33 11 -3 52 -9 90 -14 39 -4 1903 -8 4235 -8 3431 -1 4179 2 4245 13 431 72
770 317 968 701 39 76 104 258 111 315 3 19 9 57 15 84 12 64 12 303 0 375
-15 84 -50 224 -60 235 -5 5 -9 16 -9 25 0 25 -106 229 -219 420 -104 176
-123 208 -162 278 -12 20 -52 89 -89 152 -37 63 -78 133 -90 155 -12 22 -46
81 -75 130 -29 50 -83 141 -119 203 -36 62 -66 115 -66 118 0 3 -8 18 -19 32
-10 15 -27 43 -38 62 -11 19 -93 161 -183 315 -89 154 -171 295 -182 314 -10
18 -82 141 -159 273 -132 226 -228 391 -271 466 -38 68 -59 103 -172 296 -64
109 -116 202 -116 207 0 5 -4 9 -10 9 -5 0 -10 5 -10 10 0 6 -47 90 -104 188
-57 97 -113 193 -124 212 -11 19 -50 87 -87 150 -37 63 -75 129 -85 145 -9 17
-90 156 -180 310 -250 429 -260 447 -260 456 0 5 -4 9 -10 9 -5 0 -10 4 -10 9
0 5 -58 109 -129 230 l-128 221 -44 -52z"/>
</g>
</svg>
